<svg width="31" height="37" viewBox="0 0 31 37" fill="none" xmlns="http://www.w3.org/2000/svg">
<g clip-path="url(#clip0_2445_1584)">
<g filter="url(#filter0_d_2445_1584)">
<path d="M0 0.770834C0 0.345113 0.345115 0 0.770834 0H30.0625C30.4882 0 30.8334 0.345115 30.8334 0.770834V15.4167C30.8334 23.931 23.931 30.8334 15.4167 30.8334H0V0.770834Z" fill="url(#paint0_linear_2445_1584)"/>
<g filter="url(#filter1_d_2445_1584)">
<path d="M0 15.418H11.5625C13.6911 15.418 15.4167 17.1436 15.4167 19.2721V36.2305C15.4167 36.6561 15.0716 37.0013 14.6458 37.0013H0.770834C0.345115 37.0013 0 36.6561 0 36.2305V15.418Z" fill="url(#paint1_linear_2445_1584)"/>
</g>
</g>
</g>
<defs>
<filter id="filter0_d_2445_1584" x="-4" y="-4" width="38.8335" height="45" filterUnits="userSpaceOnUse" color-interpolation-filters="sRGB">
<feFlood flood-opacity="0" result="BackgroundImageFix"/>
<feColorMatrix in="SourceAlpha" type="matrix" values="0 0 0 0 0 0 0 0 0 0 0 0 0 0 0 0 0 0 127 0" result="hardAlpha"/>
<feOffset/>
<feGaussianBlur stdDeviation="2"/>
<feComposite in2="hardAlpha" operator="out"/>
<feColorMatrix type="matrix" values="0 0 0 0 0 0 0 0 0 0 0 0 0 0 0 0 0 0 0.25 0"/>
<feBlend mode="normal" in2="BackgroundImageFix" result="effect1_dropShadow_2445_1584"/>
<feBlend mode="normal" in="SourceGraphic" in2="effect1_dropShadow_2445_1584" result="shape"/>
</filter>
<filter id="filter1_d_2445_1584" x="-26" y="-6.58203" width="63.4165" height="69.582" filterUnits="userSpaceOnUse" color-interpolation-filters="sRGB">
<feFlood flood-opacity="0" result="BackgroundImageFix"/>
<feColorMatrix in="SourceAlpha" type="matrix" values="0 0 0 0 0 0 0 0 0 0 0 0 0 0 0 0 0 0 127 0" result="hardAlpha"/>
<feOffset dx="-2" dy="2"/>
<feGaussianBlur stdDeviation="12"/>
<feComposite in2="hardAlpha" operator="out"/>
<feColorMatrix type="matrix" values="0 0 0 0 0 0 0 0 0 0 0 0 0 0 0 0 0 0 0.2 0"/>
<feBlend mode="normal" in2="BackgroundImageFix" result="effect1_dropShadow_2445_1584"/>
<feBlend mode="normal" in="SourceGraphic" in2="effect1_dropShadow_2445_1584" result="shape"/>
</filter>
<linearGradient id="paint0_linear_2445_1584" x1="30.8334" y1="0" x2="0" y2="30.8334" gradientUnits="userSpaceOnUse">
<stop stop-color="#00A3FF"/>
<stop offset="0.354869" stop-color="#0276FE"/>
<stop offset="0.684629" stop-color="#084CCF"/>
<stop offset="1" stop-color="#005BB8"/>
</linearGradient>
<linearGradient id="paint1_linear_2445_1584" x1="7.70834" y1="15.418" x2="7.70834" y2="37.0013" gradientUnits="userSpaceOnUse">
<stop stop-color="#002288"/>
<stop offset="1" stop-color="#005AAC"/>
</linearGradient>
<clipPath id="clip0_2445_1584">
<rect width="30.8334" height="37" fill="white"/>
</clipPath>
</defs>
</svg>
